<svg width="200" height="200" viewBox="0 0 200 200" fill="none" xmlns="http://www.w3.org/2000/svg">
  <!-- Monkey Face -->
  <circle cx="100" cy="90" r="60" fill="#B3E5FC" />
  
  <!-- Ears -->
  <ellipse cx="40" cy="60" rx="20" ry="25" fill="#B3E5FC" />
  <ellipse cx="160" cy="60" rx="20" ry="25" fill="#B3E5FC" />
  
  <!-- Hair/Top of Head -->
  <path d="M60 40C70 20 130 20 140 40C150 60 150 60 140 70C130 80 70 80 60 70C50 60 50 60 60 40Z" fill="#212121" />
  
  <!-- Eyes with Glasses -->
  <circle cx="75" cy="90" r="15" fill="white" stroke="#212121" stroke-width="2" />
  <circle cx="125" cy="90" r="15" fill="white" stroke="#212121" stroke-width="2" />
  <circle cx="75" cy="90" r="8" fill="#03A9F4" />
  <circle cx="125" cy="90" r="8" fill="#03A9F4" />
  <circle cx="78" cy="87" r="3" fill="white" />
  <circle cx="128" cy="87" r="3" fill="white" />
  
  <!-- Glasses -->
  <rect x="55" y="75" width="40" height="30" rx="15" stroke="#03A9F4" stroke-width="3" fill="none" />
  <rect x="105" y="75" width="40" height="30" rx="15" stroke="#03A9F4" stroke-width="3" fill="none" />
  <path d="M95 90H105" stroke="#03A9F4" stroke-width="3" />
  
  <!-- Nose -->
  <ellipse cx="100" cy="110" rx="10" ry="7" fill="#212121" />
  
  <!-- Mouth -->
  <path d="M85 120C90 130 110 130 115 120" stroke="#212121" stroke-width="2" stroke-linecap="round" />
  
  <!-- Science Flask -->
  <path d="M80 170L90 140H110L120 170H80Z" fill="#FF9800" stroke="#E65100" stroke-width="2" />
  <rect x="90" y="130" width="20" height="10" fill="#FF9800" stroke="#E65100" stroke-width="2" />
  
  <!-- Bubbles in Flask -->
  <circle cx="90" cy="160" r="5" fill="#FFECB3" />
  <circle cx="100" cy="155" r="4" fill="#FFECB3" />
  <circle cx="110" cy="165" r="3" fill="#FFECB3" />
  
  <!-- Colorful Ears -->
  <path d="M40 50C40 50 30 40 25 50C20 60 30 70 40 65" fill="#FF9800" stroke="#212121" stroke-width="2" />
  <path d="M160 50C160 50 170 40 175 50C180 60 170 70 160 65" fill="#FF9800" stroke="#212121" stroke-width="2" />
</svg>