<svg width="200" height="200" viewBox="0 0 200 200" fill="none" xmlns="http://www.w3.org/2000/svg">
  <!-- Base Face -->
  <circle cx="100" cy="100" r="70" fill="#B3E5FC"/>
  
  <!-- Ears -->
  <ellipse cx="40" cy="70" rx="20" ry="25" fill="#B3E5FC"/>
  <ellipse cx="160" cy="70" rx="20" ry="25" fill="#B3E5FC"/>
  
  <!-- Hair/Top of Head -->
  <path d="M60 50C70 30 130 30 140 50C150 70 150 70 140 80C130 90 70 90 60 80C50 70 50 70 60 50Z" fill="#212121"/>
  
  <!-- Encouraging Eyes -->
  <circle cx="80" cy="90" r="8" fill="#212121"/>
  <circle cx="120" cy="90" r="8" fill="#212121"/>
  <circle cx="83" cy="87" r="3" fill="white"/>
  <circle cx="123" cy="87" r="3" fill="white"/>
  
  <!-- Encouraging Smile -->
  <path d="M85 115C95 125 105 125 115 115" stroke="#212121" stroke-width="4" stroke-linecap="round"/>
  
  <!-- Sparkles -->
  <path d="M50 40L55 45M60 35L55 45M50 50L55 45" stroke="#FFD700" stroke-width="2"/>
  <path d="M150 40L145 45M140 35L145 45M150 50L145 45" stroke="#FFD700" stroke-width="2"/>
</svg>